<?xml version="1.0" encoding="UTF-8"?> <svg xmlns="http://www.w3.org/2000/svg" width="215" height="56" viewBox="0 0 215 56" fill="none"><path d="M70.2601 0.00488281C37.3325 0.00488281 14.3354 25.498 32.0685 52.4095C34.6072 56.254 38.7511 56.254 41.2898 52.4095L72.7988 4.48391C74.1054 2.50567 72.6121 0.00488281 70.2601 0.00488281Z" fill="#AB3192"></path><path d="M30.8735 8.58828C31.6201 8.1777 31.6201 7.1326 30.8735 6.72202C24.0789 3.21345 15.0443 0.63801 3.06044 0.00348102C0.671134 -0.108495 -0.822183 2.50427 0.484469 4.48251L14.335 25.4966C14.8203 26.2431 15.9403 26.0938 16.2016 25.2353C18.5536 17.6583 24.0789 12.3208 30.8735 8.58828Z" fill="#0066CC"></path><path d="M104.009 49.7221C103.411 50.9538 101.918 51.6257 100.537 51.6257C99.1554 51.6257 97.6248 50.8792 96.9901 49.6101L79.481 14.5617H85.3049C86.2382 14.5617 87.3209 15.1962 87.9929 16.3533L99.5288 39.7189C100.35 41.3239 100.91 43.75 100.91 43.75C100.91 43.75 101.47 41.3239 102.291 39.7189L113.678 16.6519C114.313 15.3455 115.507 14.599 116.515 14.599H121.555L104.009 49.7221ZM127.864 0.00488281C125.587 0.00488281 123.758 1.83382 123.758 4.11066C123.758 6.38749 125.587 8.21643 127.864 8.21643C130.142 8.21643 131.971 6.38749 131.971 4.11066C131.971 1.83382 130.104 0.00488281 127.864 0.00488281ZM131.224 14.5617V48.2664C131.224 50.1326 129.731 51.6257 127.864 51.6257C125.998 51.6257 124.504 50.1326 124.504 48.2664V17.9583C124.504 16.0921 125.998 14.599 127.864 14.599H131.224V14.5617ZM167.139 4.11066C167.139 2.2444 168.632 0.751387 170.499 0.751387H173.859V48.9009C173.859 50.4312 172.701 51.663 171.171 51.663C169.64 51.663 168.52 50.4312 168.408 48.9009L168.147 45.2804C168.109 44.7205 168.109 44.086 168.109 44.086C168.109 44.1979 167.848 44.8698 167.811 44.9444C166.28 47.9678 160.605 51.663 155.006 51.663C144.552 51.663 136.862 43.1902 136.862 32.7764C136.862 22.3627 144.552 13.8899 155.006 13.8899C160.456 13.8899 164.973 16.428 166.84 19.8619C166.877 19.9739 167.213 20.6084 167.213 20.7204C167.213 20.7204 167.139 20.0858 167.139 19.526V4.11066ZM155.379 19.8246C148.883 19.8246 143.619 25.61 143.619 32.7391C143.619 39.8682 148.883 45.6536 155.379 45.6536C161.875 45.6536 167.139 39.8682 167.139 32.7391C167.139 25.61 161.875 19.8246 155.379 19.8246ZM208.616 17.9583C208.84 16.1294 209.81 14.5617 211.64 14.5617H215V48.8636C215 50.3939 213.842 51.6257 212.312 51.6257C210.781 51.6257 209.661 50.3939 209.549 48.8636L209.288 45.243C209.25 44.6832 209.25 44.0486 209.25 44.0486C209.25 44.1606 208.989 44.8325 208.952 44.9071C207.421 47.9305 201.746 51.6257 196.146 51.6257C185.693 51.6257 178.003 43.1528 178.003 32.7391C178.003 22.3254 185.693 13.8525 196.146 13.8525C201.597 13.8525 206.114 16.3907 207.981 19.8246C207.981 19.8246 208.354 20.5711 208.354 20.6831C208.354 20.6831 208.354 20.0485 208.429 19.4886L208.616 17.9583ZM196.52 19.8246C190.024 19.8246 184.76 25.61 184.76 32.7391C184.76 39.8682 190.024 45.6536 196.52 45.6536C203.016 45.6536 208.28 39.8682 208.28 32.7391C208.28 25.61 203.016 19.8246 196.52 19.8246Z" fill="#012D6A"></path></svg> 